<?xml version="1.0" encoding="UTF-8"?>
<svg version="1.1" xmlns="http://www.w3.org/2000/svg" width="512" height="512">
<path d="M0 0 C5.33107346 3.90428079 9.84730417 8.84414449 14.39160156 13.61083984 C28.09569729 27.88718793 42.45416605 36.94503543 62.875 38.03125 C80.3485779 37.85651422 96.8129567 32.34041983 109.36636353 19.88056946 C112.33820743 16.84331152 115.26380158 13.76465238 118.17407227 10.66845703 C128.65886771 -0.42862701 128.65886771 -0.42862701 136 -2 C138.390625 -1.99609375 138.390625 -1.99609375 140.25 -1.4375 C140.87390625 -1.27121094 141.4978125 -1.10492188 142.140625 -0.93359375 C145.6549783 0.830966 147.6419293 3.10950332 149.10440063 6.74656677 C149.52959488 8.35399498 149.52959488 8.35399498 149.96337891 9.99389648 C150.46070526 11.8730928 150.46070526 11.8730928 150.96807861 13.79025269 C152.97229422 21.86294456 154.78662204 29.977341 156.5859375 38.09765625 C157.03501103 40.10919353 157.4844917 42.12063995 157.93434143 44.13200378 C158.90566765 48.47824778 159.87454684 52.82502717 160.84152222 57.17224121 C163.23639511 67.93753419 165.64478084 78.69980981 168.05125999 89.46251297 C168.91255609 93.31521252 169.77335974 97.16802186 170.6341095 101.02084351 C176.88660359 129.00250163 183.19829109 156.97077416 189.51265544 184.93852347 C191.25719531 192.66566058 193.00080835 200.39300678 194.74438477 208.12036133 C195.37782988 210.92767914 196.01127966 213.7349959 196.64472961 216.54231262 C196.87949246 217.5827378 196.87949246 217.5827378 197.11899799 218.64418167 C198.22067386 223.52657243 199.32243332 228.40894432 200.42424011 233.29130554 C206.08161471 258.36045983 211.7388036 283.4296557 217.38936329 308.50034714 C218.71011845 314.36027518 220.03123821 320.22012027 221.35348511 326.07971191 C223.92974845 337.49765671 226.499372 348.9170183 229.05386448 360.33985519 C230.3530041 366.14084352 231.6701326 371.93740126 233.00126743 377.73112869 C233.85517309 381.45736216 234.69827704 385.18598962 235.53928185 388.9151535 C235.92795386 390.62726148 236.32121708 392.33833584 236.71979713 394.04816437 C242.68661191 419.66873218 242.59257144 444.53387211 228.3046875 467.640625 C224.53275822 473.35967641 219.84932599 478.19384308 215 483 C214.37867188 483.65484375 213.75734375 484.3096875 213.1171875 484.984375 C199.71509033 498.08597672 179.21500065 504.00710963 160.9375 504.25 C159.77089844 504.27578125 158.60429687 504.3015625 157.40234375 504.328125 C152.71136485 503.8757229 149.4965041 502.4965041 146.15234375 499.15234375 C143.94320922 495.02612977 144.38769878 490.53506619 145 486 C147.12358137 482.2837326 149.13609217 480.65844034 153 479 C155.02368164 478.65283203 155.02368164 478.65283203 157.16015625 478.5078125 C157.94849854 478.4449707 158.73684082 478.38212891 159.54907227 478.31738281 C160.79321899 478.22215332 160.79321899 478.22215332 162.0625 478.125 C178.32777276 476.61995163 191.84625016 470.18476873 203 458 C213.24605005 444.01208463 215.71311755 428.69587485 213.74356079 411.80015182 C212.97406129 406.83133549 211.83661448 401.95075888 210.6875 397.05859375 C210.32623383 395.45153348 209.96677815 393.84406535 209.60894775 392.23623657 C208.63433962 387.8807467 207.6348676 383.53131005 206.63087463 379.18251419 C205.54962981 374.47788316 204.49257366 369.7678135 203.43261719 365.05834961 C201.60142099 356.93665242 199.75594671 348.81831336 197.90039062 340.70214844 C194.98136648 327.93352871 192.09011185 315.15870813 189.203125 302.3828125 C188.21781146 298.02396175 187.23226327 293.6651641 186.24658203 289.30639648 C186.00072168 288.21913363 185.75486134 287.13187078 185.50155067 286.01166058 C183.73872212 278.21800229 181.97160197 270.42532413 180.20263672 262.63305664 C173.11212939 231.39467747 166.09412063 200.14067445 159.125 168.875 C158.6475731 166.73323562 158.17014593 164.5914713 157.69271851 162.44970703 C157.4581384 161.39734674 157.22355829 160.34498646 156.9818697 159.26073647 C155.81223189 154.01364576 154.64248706 148.76657893 153.47265625 143.51953125 C153.24450666 142.49612263 153.01635708 141.472714 152.78129387 140.418293 C147.73685896 117.79328327 142.65512555 95.17670536 137.5625 72.5625 C137.36534645 71.68697227 137.1681929 70.81144455 136.965065 69.90938568 C134.64483399 59.60592849 132.32329832 49.30276601 130 39 C127.08991934 39 125.80093321 40.70839229 123.66015625 42.50561523 C102.37258724 60.32580259 78.28287021 64.7289284 51 63 C31.67294652 60.48953502 14.58201074 50.73104524 1 37 C-2.81086913 50.5220906 -5.82710887 64.21525906 -8.890625 77.921875 C-9.46859569 80.49737348 -10.04680656 83.07281695 -10.62532043 85.64819336 C-11.85919547 91.14323941 -13.09090532 96.63876696 -14.32107544 102.13464355 C-16.11120191 110.13214035 -17.90472989 118.12887146 -19.69905245 126.12542772 C-22.53639933 138.770633 -25.37133644 151.41637697 -28.20458984 164.0625 C-31.80174578 180.11813554 -35.40381395 196.17266591 -39.007967 212.22673225 C-41.64739304 223.98373584 -44.28516747 235.74110278 -46.91723633 247.49975586 C-47.88479543 251.8214816 -48.85249944 256.14317487 -49.8203125 260.46484375 C-50.0612155 261.54065138 -50.30211849 262.61645901 -50.55032158 263.72486687 C-53.9205432 278.77112543 -57.31129984 293.81264581 -60.71658039 308.85099983 C-63.33640467 320.42081749 -65.94976077 331.9920848 -68.55911541 343.56426811 C-70.2991795 351.27958129 -72.04557845 358.99340619 -73.80024362 366.70541197 C-75.13884243 372.59155653 -76.46665445 378.4800826 -77.79069901 384.36952019 C-78.33650843 386.789173 -78.88585057 389.20803213 -79.43903732 391.62600899 C-84.47743083 413.66387062 -88.4928324 432.55718335 -76 453 C-67.89647235 465.22637505 -56.02929001 473.70328286 -41.5859375 476.7109375 C-35.71931706 477.6084914 -29.92481799 478.04962412 -24 478.3125 C-18.3082778 478.68732073 -15.75820113 479.71982649 -12 484 C-10.13766575 487.72466849 -10.42869171 491.94495313 -11 496 C-12.6720747 499.12578143 -14.7856235 501.39281175 -18 503 C-20.54461196 503.10424346 -23.06224678 503.14779725 -25.60740662 503.14717102 C-26.4017305 503.15084771 -27.19605439 503.1545244 -28.0144487 503.1583125 C-30.69119815 503.16937505 -33.36790882 503.1731976 -36.04467773 503.17700195 C-37.95813623 503.18326492 -39.87159351 503.18991157 -41.78504944 503.19691467 C-46.99624296 503.21434575 -52.20742729 503.22488327 -57.41864276 503.2331202 C-60.67546482 503.2382684 -63.93228403 503.24434437 -67.18910408 503.25063133 C-77.38142139 503.26969366 -87.57373143 503.28391971 -97.76606315 503.2922433 C-109.52551364 503.30200514 -121.28477535 503.32829283 -133.04415935 503.36874419 C-142.13474384 503.3989395 -151.22527436 503.41371562 -160.31590801 503.41702431 C-165.74392344 503.41937189 -171.17173747 503.42829364 -176.59969902 503.45348549 C-181.7124703 503.47682931 -186.82490851 503.48097403 -191.93771935 503.47072411 C-193.80851603 503.47023009 -195.67932945 503.4765108 -197.55007553 503.49028015 C-213.35357423 503.60003405 -224.14346 501.37961065 -235.9375 490.15625 C-245.05245869 480.56982792 -247.43166619 469.6432079 -247.21484375 456.79296875 C-246.54274382 444.92734992 -241.03954254 435.16983942 -232.5234375 427.078125 C-222.12420493 418.51405112 -211.18985642 416.085489 -198 417 C-192.08010832 417.88478656 -186.25941644 419.3160696 -180.4375 420.6875 C-178.83012747 421.05826577 -177.22262329 421.42846122 -175.61499023 421.7980957 C-171.75156919 422.69086628 -167.89268784 423.60171489 -164.03503418 424.51904297 C-161.22702843 425.18268298 -158.41382065 425.82340491 -155.6015625 426.46875 C-153.92116745 426.87206333 -152.24139234 427.27797628 -150.5625 427.6875 C-149.83796631 427.8527417 -149.11343262 428.0179834 -148.36694336 428.18823242 C-143.66736056 429.39616891 -141.06909578 431.26545541 -138 435 C-136.51271163 439.46186512 -136.28869468 443.30077062 -138.125 447.6875 C-140.61308825 450.75614217 -142.37754243 452.3181447 -146 454 C-157.52339838 454.67759939 -169.92091509 450.00570366 -180.98095703 447.2175293 C-183.75864372 446.5203572 -186.53924734 445.83589335 -189.3203125 445.15234375 C-190.15805206 444.93674301 -190.99579163 444.72114227 -191.85891724 444.49900818 C-199.79394943 442.55658722 -206.96875517 441.69628029 -214.2734375 445.78515625 C-217.37665759 447.96864369 -219.32174614 450.64349227 -221 454 C-221.68243922 461.37258109 -221.76668165 467.13331489 -217 473 C-209.77954438 478.69943954 -201.48126703 478.14327346 -192.76220703 478.11352539 C-191.63967026 478.11367142 -190.51713348 478.11381744 -189.36058044 478.1139679 C-185.65963797 478.11327265 -181.95874616 478.10549837 -178.2578125 478.09765625 C-175.68805977 478.09579069 -173.11830668 478.09436744 -170.54855347 478.09336853 C-164.48198853 478.08994381 -158.41544442 478.08206668 -152.34888732 478.07201904 C-145.4395714 478.06082505 -138.5302546 478.05533918 -131.62093186 478.05032361 C-117.41394487 478.03988315 -103.20697308 478.02230422 -89 478 C-89.48206406 477.45467621 -89.96412811 476.90935242 -90.46080017 476.34750366 C-91.09240555 475.6300296 -91.72401093 474.91255554 -92.37475586 474.17333984 C-93.00119492 473.46301605 -93.62763397 472.75269226 -94.27305603 472.02084351 C-107.51826041 456.52150727 -111.14671523 435.21924597 -110.28503418 415.49873352 C-109.80143919 409.56270859 -108.52243663 403.84948743 -107.21875 398.046875 C-106.90841195 396.62959803 -106.59887558 395.21214533 -106.29003906 393.79454041 C-105.40586541 389.7549562 -104.50556434 385.71911627 -103.60116577 381.68401718 C-102.97686653 378.8967163 -102.3554578 376.10878285 -101.73461914 373.32070923 C-98.46922735 358.66516851 -95.16703476 344.01799527 -91.85985565 329.37183762 C-90.38491237 322.83753515 -88.9124456 316.30267471 -87.43994141 309.76782227 C-87.13480797 308.41371227 -86.82967351 307.05960251 -86.52453804 305.70549297 C-86.06129478 303.64974323 -85.59805376 301.59399298 -85.13482535 299.5382399 C-84.19039257 295.34704817 -83.24572774 291.15590882 -82.30088246 286.96481007 C-76.11964451 259.54626379 -69.95886527 232.12313842 -63.80195522 204.69912052 C-61.52265547 194.54671994 -59.2420006 184.39462488 -56.96000767 174.24282932 C-55.66762362 168.49342182 -54.37539586 162.74397919 -53.08319855 156.99452972 C-52.76245964 155.56745015 -52.44171482 154.1403719 -52.12096405 152.71329498 C-48.17708221 135.16594049 -44.24067181 117.6169464 -40.31888771 100.06463909 C-37.96134818 89.51328713 -35.59986596 78.96282509 -33.23540306 68.41302204 C-31.60100425 61.11899391 -29.9723747 53.82371039 -28.34819221 46.52740097 C-27.35853628 42.08822537 -26.36326828 37.65032257 -25.36635208 33.21277237 C-24.90977438 31.17503985 -24.4555399 29.13678062 -24.00385666 27.09795761 C-23.39001727 24.32858813 -22.7678352 21.56122096 -22.14355469 18.79418945 C-21.96919577 17.99787833 -21.79483685 17.20156721 -21.61519432 16.38112545 C-20.00650478 9.32589426 -18.44518635 3.08719134 -12 -1 C-7.71496015 -2.40806583 -4.09212692 -1.75060983 0 0 Z " fill="#000000" transform="translate(259,5)"/>
<path d="M0 0 C3.93287394 2.00219037 5.39526936 3.19279201 6.78646851 7.35032272 C8.8597531 16.14274974 10.66716575 24.97920921 12.4140625 33.84082031 C12.74433596 35.50451988 13.07489003 37.16816376 13.40570068 38.83175659 C14.11277932 42.39003899 14.81812651 45.9486585 15.52215576 49.50754547 C16.63669683 55.14030645 17.75659359 60.77199449 18.87744141 66.40350342 C22.06224943 82.40897274 25.24081693 98.41567534 28.41210938 114.42382812 C30.16729325 123.28345896 31.92732999 132.14211183 33.69262505 140.99973369 C34.8070315 146.5928897 35.91544663 152.18718851 37.01939392 157.78241777 C37.70791979 161.26461434 38.4021192 164.74566186 39.09790802 168.22641373 C39.41831614 169.83514882 39.73642023 171.44434486 40.05199432 173.05403519 C41.9413967 185.81678 41.9413967 185.81678 47.6875 196.9375 C52.46330156 199.1317872 56.67198093 199.19920286 61.75 198.4375 C64.89833328 197.04496797 66.38672352 196.02668461 68.19056511 193.12033081 C70.0830936 188.16281476 69.53756812 182.60647539 69.49829102 177.37890625 C69.50211719 175.98875345 69.50773878 174.5986046 69.51501465 173.20846558 C69.52694159 170.22259187 69.52649453 167.23706995 69.51642036 164.25119019 C69.50082842 159.52743938 69.51455879 154.80404826 69.53245544 150.08032227 C69.5632448 140.90584574 69.56477768 131.73147971 69.56280518 122.55696106 C69.5614114 110.87898774 69.57178222 99.20109934 69.6113829 87.52318859 C69.62630056 82.82982246 69.62605863 78.13677607 69.61390507 73.44340515 C69.60918816 70.52151977 69.61672299 67.59975632 69.62744904 64.67789078 C69.63099463 62.68237807 69.61958993 60.68685624 69.60771179 58.69137573 C69.6144693 57.49698883 69.62122681 56.30260193 69.62818909 55.07202148 C69.62760278 54.03818832 69.62701647 53.00435516 69.62641239 51.93919373 C70.17670689 47.60976179 71.75864472 44.24135528 74.84765625 41.15234375 C78.97387023 38.94320922 83.46493381 39.38769878 88 40 C91.68242588 42.10424336 93.43864253 44.11467679 95 48 C95.25053978 50.70871544 95.25053978 50.70871544 95.2515564 53.86947632 C95.25693924 55.06952805 95.26232208 56.26957977 95.26786804 57.5059967 C95.26374405 58.81934494 95.25962006 60.13269318 95.25537109 61.48583984 C95.25812168 62.8855459 95.26180199 64.28525039 95.26634216 65.68495178 C95.27445013 68.69750452 95.27662364 71.70998304 95.27439499 74.72254562 C95.27156089 79.48807585 95.28591759 84.25345794 95.30337524 89.01895142 C95.35039253 102.56957781 95.37434202 116.1201941 95.38085938 129.67089844 C95.38461145 137.15615806 95.40265238 144.64125002 95.43595374 152.12643778 C95.45615879 156.8616479 95.45854258 161.59642536 95.44767356 166.33166099 C95.44506346 169.28091974 95.45908482 172.22992743 95.47775459 175.17912102 C95.48559977 177.1937218 95.47364952 179.20836936 95.46107483 181.22294617 C95.47545977 189.93442152 95.47545977 189.93442152 100 197 C102.28547148 198.14273574 103.76879905 198.23127257 106.3125 198.3125 C107.07175781 198.34988281 107.83101563 198.38726562 108.61328125 198.42578125 C112.03210117 197.81587721 113.52112671 196.41862834 116 194 C117.34877256 190.66932475 117.34877256 190.66932475 118.09301758 186.83291626 C118.25231404 186.12872893 118.41161051 185.4245416 118.57573414 184.69901526 C119.07260859 182.47014081 119.53932761 180.23661284 120 178 C120.1468008 177.30734653 120.29360161 176.61469306 120.44485092 175.90105009 C121.51792023 170.83488076 122.51967478 165.75589083 123.51171875 160.67333984 C123.84040524 159.00578353 124.16948835 157.33830535 124.49893188 155.67089844 C125.20046927 152.11713828 125.89974375 148.56294344 126.59732056 145.00840378 C127.70166788 139.38384926 128.81426844 133.76094644 129.9284668 128.13833618 C133.09328018 112.16279722 136.25264782 96.18620864 139.39160156 80.20556641 C141.13080392 71.35151885 142.87960049 62.49942382 144.63920689 53.64940798 C145.56771425 48.97722734 146.49117044 44.30417227 147.40267944 39.62864304 C148.25798084 35.24149127 149.12574168 30.85699092 150.00309372 26.47419739 C150.32222662 24.86830822 150.63674438 23.26149381 150.9462471 21.65372086 C151.3700782 19.45569422 151.81051763 17.26162213 152.25512695 15.06771851 C152.61789482 13.2267286 152.61789482 13.2267286 152.98799133 11.34854698 C154.30348775 6.99581591 156.1578617 3.26578612 159.97265625 0.64453125 C164.64022 -0.8393763 169.34042668 -0.64939826 173.875 1.125 C176.62080644 3.54777039 177.74244162 5.55826126 179 9 C179.24534342 14.0279948 178.66548013 18.68604766 177.66694641 23.5945282 C177.52346636 24.32708181 177.3799863 25.05963542 177.23215836 25.81438762 C176.75269583 28.25345976 176.26371505 30.69052052 175.7746582 33.12768555 C175.42755596 34.88251767 175.08100756 36.63745943 174.73497009 38.39250183 C173.79491426 43.1502535 172.84619434 47.90623739 171.8952105 52.6618154 C171.10039948 56.63955701 170.30936109 60.61804539 169.51816529 64.59650737 C167.64981673 73.99002865 165.77395317 83.38202861 163.89379883 92.77319336 C161.95876136 102.43934849 160.03797507 112.10825973 158.1239751 121.77860039 C156.47684823 130.09743568 154.81999693 138.41429562 153.15562886 146.72969848 C152.16322218 151.68865441 151.1746115 156.64829013 150.19570351 161.60993004 C149.27360749 166.28173374 148.33933794 170.95094435 147.39599037 175.61850166 C147.05347729 177.32351962 146.715154 179.02938597 146.38154221 180.73616791 C143.73890609 194.23508648 140.96534095 207.65915401 130 217 C119.74388913 223.73323622 110.11175419 225.37228124 98 224 C92.99294101 222.56174511 88.34392591 220.58573291 84.01953125 217.66015625 C81.87357937 216.71788154 81.87357937 216.71788154 79.34375 218.08203125 C78.4053125 218.65308594 77.466875 219.22414063 76.5 219.8125 C66.54635633 225.78742072 53.42082339 225.71486385 42.23046875 223.12890625 C33.35246354 219.65292218 25.99778778 213.86541942 21.44680786 205.39590454 C19.70929832 201.31767364 18.74511818 197.32302983 17.80810547 193.00146484 C17.59928175 192.05984686 17.39045803 191.11822887 17.17530632 190.14807701 C13.67124719 174.15429401 10.48916159 158.08957441 7.2578125 142.0390625 C6.89345365 140.23076307 6.52907229 138.42246818 6.16466904 136.6141777 C4.65064346 129.09912339 3.13803067 121.58378744 1.62953377 114.06762123 C-0.51832247 103.36587922 -2.67484883 92.66596805 -4.84333885 81.96838725 C-6.37745291 74.39681231 -7.90197923 66.82334558 -9.41935265 59.24839818 C-10.32245129 54.74123779 -11.22964076 50.23499499 -12.14709091 45.73073196 C-13.00679569 41.50884737 -13.85457332 37.28474038 -14.69332695 33.05864525 C-15.00220406 31.51304947 -15.31533398 29.96829633 -15.63310814 28.42450523 C-19.20432533 11.04766358 -19.20432533 11.04766358 -15.87890625 4.94140625 C-10.83308767 -0.34397642 -7.17939567 -0.90431712 0 0 Z " fill="#000000" transform="translate(241,284)"/>
<path d="M0 0 C3.12578143 1.6720747 5.39281175 3.7856235 7 7 C7.51512617 11.09157355 7.94367269 15.23589546 5.953125 18.95703125 C3.55501226 21.85592636 1.60351712 23.79811835 -2.171875 24.2734375 C-9.98876369 24.58137554 -9.98876369 24.58137554 -13.5625 21.625 C-17.3057723 17.59378368 -17.39037018 14.90519941 -17.359375 9.55078125 C-16.78039966 5.44131496 -15.00085071 3.78650423 -12 1 C-8.27533151 -0.86233425 -4.05504687 -0.57130829 0 0 Z " fill="#000000" transform="translate(369,124)"/>
<path d="M0 0 C3.12578143 1.6720747 5.39281175 3.7856235 7 7 C7.51512617 11.09157355 7.94367269 15.23589546 5.953125 18.95703125 C3.55501226 21.85592636 1.60351712 23.79811835 -2.171875 24.2734375 C-9.98876369 24.58137554 -9.98876369 24.58137554 -13.5625 21.625 C-17.3057723 17.59378368 -17.39037018 14.90519941 -17.359375 9.55078125 C-16.78039966 5.44131496 -15.00085071 3.78650423 -12 1 C-8.27533151 -0.86233425 -4.05504687 -0.57130829 0 0 Z " fill="#000000" transform="translate(289,124)"/>
</svg>
